<svg xmlns="http://www.w3.org/2000/svg" viewBox="0 0 512 512">
  <defs>
    <radialGradient id="g1" cx="35%" cy="30%" r="70%">
      <stop offset="0%" stop-color="#34f5ff"/>
      <stop offset="60%" stop-color="#0b6bff"/>
      <stop offset="100%" stop-color="#061228"/>
    </radialGradient>
    <linearGradient id="g2" x1="0" y1="0" x2="1" y2="1">
      <stop offset="0%" stop-color="#9bff64"/>
      <stop offset="100%" stop-color="#2bffcc"/>
    </linearGradient>
  </defs>

  <!-- space -->
  <rect width="512" height="512" rx="96" fill="#050814"/>
  <circle cx="146" cy="120" r="6" fill="#7cf7ff" opacity=".9"/>
  <circle cx="220" cy="80" r="4" fill="#7cf7ff" opacity=".8"/>
  <circle cx="320" cy="140" r="5" fill="#7cf7ff" opacity=".85"/>
  <circle cx="390" cy="90" r="3" fill="#7cf7ff" opacity=".7"/>
  <circle cx="420" cy="180" r="4" fill="#7cf7ff" opacity=".75"/>

  <!-- planet -->
  <circle cx="220" cy="300" r="120" fill="url(#g1)"/>
  <ellipse cx="220" cy="315" rx="170" ry="46"
           fill="none" stroke="url(#g2)" stroke-width="22" opacity=".9"/>
  <ellipse cx="220" cy="315" rx="170" ry="46"
           fill="none" stroke="#0d1a2f" stroke-width="6" opacity=".7"/>

  <!-- rocket -->
  <g transform="translate(300 190) rotate(20)">
    <path d="M62 0 C90 30 106 70 110 120 C86 126 40 126 14 120 C18 70 34 30 62 0 Z"
          fill="#e8f7ff"/>
    <path d="M62 0 C78 26 88 55 92 92 C78 96 46 96 32 92 C36 55 46 26 62 0 Z"
          fill="#7cf7ff" opacity=".35"/>
    <circle cx="62" cy="54" r="16" fill="#0b1020" stroke="#7cf7ff" stroke-width="6"/>
    <path d="M14 120 L0 150 L30 138 Z" fill="#9bff64"/>
    <path d="M110 120 L124 150 L94 138 Z" fill="#9bff64"/>
    <path d="M38 122 L62 170 L86 122 Z" fill="#ff7a18"/>
    <path d="M46 126 L62 156 L78 126 Z" fill="#ffd36a"/>
  </g>
</svg>
